<svg width="60" height="48" viewBox="0 0 60 48" fill="none" xmlns="http://www.w3.org/2000/svg">
<g clip-path="url(#clip0_1_163)">
<path d="M36.825 0.112447C35.2313 -0.346928 33.5719 0.581198 33.1125 2.17495L21.1125 44.1749C20.6531 45.7687 21.5813 47.4281 23.175 47.8874C24.7688 48.3468 26.4281 47.4187 26.8875 45.8249L38.8875 3.82495C39.3469 2.2312 38.4188 0.571822 36.825 0.112447ZM44.3813 11.3718C43.2094 12.5437 43.2094 14.4468 44.3813 15.6187L52.7531 23.9999L44.3719 32.3812C43.2 33.5531 43.2 35.4562 44.3719 36.6281C45.5438 37.7999 47.4469 37.7999 48.6188 36.6281L59.1188 26.1281C60.2906 24.9562 60.2906 23.0531 59.1188 21.8812L48.6188 11.3812C47.4469 10.2093 45.5438 10.2093 44.3719 11.3812L44.3813 11.3718ZM15.6281 11.3718C14.4563 10.1999 12.5531 10.1999 11.3813 11.3718L0.881256 21.8718C-0.290619 23.0437 -0.290619 24.9468 0.881256 26.1187L11.3813 36.6187C12.5531 37.7906 14.4563 37.7906 15.6281 36.6187C16.8 35.4468 16.8 33.5437 15.6281 32.3718L7.24688 23.9999L15.6281 15.6187C16.8 14.4468 16.8 12.5437 15.6281 11.3718Z" fill="#00FF88"/>
</g>
<defs>
<clipPath id="clip0_1_163">
<path d="M0 0H60V48H0V0Z" fill="white"/>
</clipPath>
</defs>
</svg>
