<svg width="48" height="53" viewBox="0 0 48 53" fill="none" xmlns="http://www.w3.org/2000/svg">
<path d="M48 53H0V0H48V53Z" stroke="#E5E7EB"/>
<path d="M48 49H0V1H48V49Z" stroke="#E5E7EB"/>
<path d="M6 7C6 5.34062 4.65938 4 3 4C1.34062 4 0 5.34062 0 7V38.5C0 42.6437 3.35625 46 7.5 46H45C46.6594 46 48 44.6594 48 43C48 41.3406 46.6594 40 45 40H7.5C6.675 40 6 39.325 6 38.5V7ZM44.1188 15.1188C45.2906 13.9469 45.2906 12.0438 44.1188 10.8719C42.9469 9.7 41.0437 9.7 39.8719 10.8719L30 20.7531L24.6188 15.3719C23.4469 14.2 21.5438 14.2 20.3719 15.3719L9.87188 25.8719C8.7 27.0437 8.7 28.9469 9.87188 30.1188C11.0438 31.2906 12.9469 31.2906 14.1188 30.1188L22.5 21.7469L27.8812 27.1281C29.0531 28.3 30.9563 28.3 32.1281 27.1281L44.1281 15.1281L44.1188 15.1188Z" fill="#FF0040"/>
</svg>
