<svg width="42" height="53" viewBox="0 0 42 53" fill="none" xmlns="http://www.w3.org/2000/svg">
<path d="M42 53H0V0H42V53Z" stroke="#E5E7EB"/>
<g clip-path="url(#clip0_1_149)">
<path d="M41.2312 19.797C40.5094 16.9001 39.1406 14.7157 36.225 14.7157H32.4656V19.1595C32.4656 22.6095 29.5406 25.5157 26.2031 25.5157H16.1906C13.4531 25.5157 11.1844 27.8595 11.1844 30.6064V40.1501C11.1844 42.8689 13.5469 44.4626 16.1906 45.2407C19.3594 46.1689 22.4062 46.3376 26.2031 45.2407C28.725 44.5095 31.2094 43.0376 31.2094 40.1501V36.3345H21.2062V35.0595H36.225C39.1406 35.0595 40.2187 33.0251 41.2312 29.9782C42.2812 26.8376 42.2344 23.8189 41.2312 19.797ZM26.8312 38.8751C27.8719 38.8751 28.7156 39.7282 28.7156 40.7782C28.7156 41.8376 27.8719 42.6907 26.8312 42.6907C25.8 42.6907 24.9469 41.8282 24.9469 40.7782C24.9562 39.7189 25.8 38.8751 26.8312 38.8751ZM15.7312 24.2595H25.7437C28.5281 24.2595 30.75 21.9626 30.75 19.1689V9.61575C30.75 6.897 28.4625 4.86262 25.7437 4.40325C22.3875 3.85012 18.7406 3.87825 15.7312 4.41262C11.4937 5.16262 10.725 6.72825 10.725 9.62512V13.4407H20.7469V14.7157H6.96562C4.04999 14.7157 1.49999 16.4689 0.703119 19.797C-0.215631 23.6126 -0.253131 25.9939 0.703119 29.9782C1.41562 32.9407 3.11249 35.0595 6.02812 35.0595H9.46874V30.4845C9.46874 27.1751 12.3281 24.2595 15.7312 24.2595ZM15.1031 10.8907C14.0625 10.8907 13.2187 10.0376 13.2187 8.98762C13.2281 7.92825 14.0625 7.07512 15.1031 7.07512C16.1344 7.07512 16.9875 7.93762 16.9875 8.98762C16.9875 10.0376 16.1437 10.8907 15.1031 10.8907Z" fill="#00D4FF"/>
</g>
<defs>
<clipPath id="clip0_1_149">
<path d="M0 1H42V49H0V1Z" fill="white"/>
</clipPath>
</defs>
</svg>
