<svg width="48" height="48" viewBox="0 0 48 48" fill="none" xmlns="http://www.w3.org/2000/svg">
<g clip-path="url(#clip0_1_188)">
<path d="M17.25 0C20.1469 0 22.5 2.35313 22.5 5.25V42.75C22.5 45.6469 20.1469 48 17.25 48C14.5406 48 12.3094 45.9469 12.0281 43.3031C11.5406 43.4344 11.025 43.5 10.5 43.5C7.19063 43.5 4.5 40.8094 4.5 37.5C4.5 36.8063 4.62187 36.1312 4.8375 35.5125C2.00625 34.4437 0 31.7062 0 28.5C0 25.5094 1.75312 22.9219 4.29375 21.7219C3.47812 20.7 3 19.4062 3 18C3 15.1219 5.025 12.7219 7.725 12.1312C7.575 11.6156 7.5 11.0625 7.5 10.5C7.5 7.69688 9.43125 5.33438 12.0281 4.67813C12.3094 2.05313 14.5406 0 17.25 0ZM30.75 0C33.4594 0 35.6813 2.05313 35.9719 4.67813C38.5781 5.33438 40.5 7.6875 40.5 10.5C40.5 11.0625 40.425 11.6156 40.275 12.1312C42.975 12.7125 45 15.1219 45 18C45 19.4062 44.5219 20.7 43.7063 21.7219C46.2469 22.9219 48 25.5094 48 28.5C48 31.7062 45.9937 34.4437 43.1625 35.5125C43.3781 36.1312 43.5 36.8063 43.5 37.5C43.5 40.8094 40.8094 43.5 37.5 43.5C36.975 43.5 36.4594 43.4344 35.9719 43.3031C35.6906 45.9469 33.4594 48 30.75 48C27.8531 48 25.5 45.6469 25.5 42.75V5.25C25.5 2.35313 27.8531 0 30.75 0Z" fill="#00D4FF"/>
</g>
<defs>
<clipPath id="clip0_1_188">
<path d="M0 0H48V48H0V0Z" fill="white"/>
</clipPath>
</defs>
</svg>
